<?xml version="1.0" encoding="UTF-8" standalone="no"?>
<!-- Created with Inkscape (http://www.inkscape.org/) -->

<svg
   width="210mm"
   height="297mm"
   viewBox="0 0 210 297"
   version="1.1"
   id="svg1"
   inkscape:version="1.4.3 (0d15f75, 2025-12-25)"
   sodipodi:docname="logo.svg"
   xmlns:inkscape="http://www.inkscape.org/namespaces/inkscape"
   xmlns:sodipodi="http://sodipodi.sourceforge.net/DTD/sodipodi-0.dtd"
   xmlns:xlink="http://www.w3.org/1999/xlink"
   xmlns="http://www.w3.org/2000/svg"
   xmlns:svg="http://www.w3.org/2000/svg">
  <sodipodi:namedview
     id="namedview1"
     pagecolor="#ffffff"
     bordercolor="#000000"
     borderopacity="0.25"
     inkscape:showpageshadow="2"
     inkscape:pageopacity="0.0"
     inkscape:pagecheckerboard="0"
     inkscape:deskcolor="#d1d1d1"
     inkscape:document-units="mm"
     inkscape:zoom="0.56252586"
     inkscape:cx="822.18442"
     inkscape:cy="487.97756"
     inkscape:window-width="1920"
     inkscape:window-height="1137"
     inkscape:window-x="-8"
     inkscape:window-y="-8"
     inkscape:window-maximized="1"
     inkscape:current-layer="layer1" />
  <defs
     id="defs1">
    <inkscape:path-effect
       effect="powerstroke"
       message=""
       id="path-effect78"
       is_visible="true"
       lpeversion="1.3"
       scale_width="1"
       interpolator_type="CentripetalCatmullRom"
       interpolator_beta="0.75"
       start_linecap_type="round"
       end_linecap_type="round"
       offset_points="109.19448,1.1640537"
       linejoin_type="spiro"
       miter_limit="4"
       not_jump="true"
       sort_points="true" />
    <inkscape:path-effect
       effect="simplify"
       id="path-effect77"
       is_visible="true"
       lpeversion="1.3"
       threshold="0.012"
       steps="1"
       smooth_angles="0"
       helper_size="0"
       simplify_individual_paths="false"
       simplify_just_coalesce="false"
       step="1" />
    <linearGradient
       id="linearGradient53"
       inkscape:collect="always">
      <stop
         style="stop-color:#9e17be;stop-opacity:0.97860962;"
         offset="0"
         id="stop52" />
      <stop
         style="stop-color:#470850;stop-opacity:0.20855615;"
         offset="1"
         id="stop53" />
    </linearGradient>
    <linearGradient
       id="swatch24"
       inkscape:swatch="solid">
      <stop
         style="stop-color:#000000;stop-opacity:1;"
         offset="0"
         id="stop25" />
    </linearGradient>
    <inkscape:path-effect
       effect="spiro"
       id="path-effect14"
       is_visible="true"
       lpeversion="1" />
    <inkscape:path-effect
       effect="powerstroke"
       message=""
       id="path-effect13"
       is_visible="true"
       lpeversion="1.3"
       scale_width="1"
       interpolator_type="CentripetalCatmullRom"
       interpolator_beta="0.75"
       start_linecap_type="round"
       end_linecap_type="round"
       offset_points="181.8116,2.3281074"
       linejoin_type="spiro"
       miter_limit="4"
       not_jump="true"
       sort_points="true" />
    <inkscape:path-effect
       effect="simplify"
       id="path-effect12"
       is_visible="true"
       lpeversion="1.3"
       threshold="0.012"
       steps="1"
       smooth_angles="0"
       helper_size="0"
       simplify_individual_paths="false"
       simplify_just_coalesce="false"
       step="1" />
    <inkscape:path-effect
       effect="powerstroke"
       message=""
       id="path-effect11"
       is_visible="true"
       lpeversion="1.3"
       scale_width="1"
       interpolator_type="CentripetalCatmullRom"
       interpolator_beta="0.75"
       start_linecap_type="round"
       end_linecap_type="round"
       offset_points="66.247052,2.3281074"
       linejoin_type="spiro"
       miter_limit="4"
       not_jump="true"
       sort_points="true" />
    <inkscape:path-effect
       effect="simplify"
       id="path-effect10"
       is_visible="true"
       lpeversion="1.3"
       threshold="0.012"
       steps="1"
       smooth_angles="0"
       helper_size="0"
       simplify_individual_paths="false"
       simplify_just_coalesce="false"
       step="1" />
    <inkscape:path-effect
       effect="powerstroke"
       message=""
       id="path-effect9"
       is_visible="true"
       lpeversion="1.3"
       scale_width="1"
       interpolator_type="CentripetalCatmullRom"
       interpolator_beta="0.75"
       start_linecap_type="round"
       end_linecap_type="round"
       offset_points="89.697565,2.3281074"
       linejoin_type="spiro"
       miter_limit="4"
       not_jump="true"
       sort_points="true" />
    <inkscape:path-effect
       effect="simplify"
       id="path-effect8"
       is_visible="true"
       lpeversion="1.3"
       threshold="0.012"
       steps="1"
       smooth_angles="0"
       helper_size="0"
       simplify_individual_paths="false"
       simplify_just_coalesce="false"
       step="1" />
    <inkscape:path-effect
       effect="powerstroke"
       message=""
       id="path-effect7"
       is_visible="true"
       lpeversion="1.3"
       scale_width="1"
       interpolator_type="CentripetalCatmullRom"
       interpolator_beta="0.75"
       start_linecap_type="round"
       end_linecap_type="round"
       offset_points="64.929743,4.9888017"
       linejoin_type="spiro"
       miter_limit="4"
       not_jump="true"
       sort_points="true" />
    <inkscape:path-effect
       effect="simplify"
       id="path-effect6"
       is_visible="true"
       lpeversion="1.3"
       threshold="0.012"
       steps="1"
       smooth_angles="0"
       helper_size="0"
       simplify_individual_paths="false"
       simplify_just_coalesce="false"
       step="1" />
    <inkscape:path-effect
       effect="powerstroke"
       message=""
       id="path-effect5"
       is_visible="true"
       lpeversion="1.3"
       scale_width="1"
       interpolator_type="CentripetalCatmullRom"
       interpolator_beta="0.75"
       start_linecap_type="round"
       end_linecap_type="round"
       offset_points="68.485689,4.9888017"
       linejoin_type="spiro"
       miter_limit="4"
       not_jump="true"
       sort_points="true" />
    <inkscape:path-effect
       effect="simplify"
       id="path-effect4"
       is_visible="true"
       lpeversion="1.3"
       threshold="0.012"
       steps="1"
       smooth_angles="0"
       helper_size="0"
       simplify_individual_paths="false"
       simplify_just_coalesce="false"
       step="1" />
    <linearGradient
       id="linearGradient2"
       inkscape:collect="always">
      <stop
         style="stop-color:#f07ff0;stop-opacity:0.74725276;"
         offset="0"
         id="stop3" />
      <stop
         style="stop-color:#d319e8;stop-opacity:0;"
         offset="1"
         id="stop4" />
    </linearGradient>
    <linearGradient
       id="linearGradient1"
       inkscape:collect="always">
      <stop
         style="stop-color:#4849bf;stop-opacity:0.68681318;"
         offset="0.44924781"
         id="stop1" />
      <stop
         style="stop-color:#d2d9ff;stop-opacity:0;"
         offset="1"
         id="stop2" />
    </linearGradient>
    <radialGradient
       inkscape:collect="always"
       xlink:href="#linearGradient1"
       id="radialGradient2"
       cx="120.23012"
       cy="55.708286"
       fx="120.23012"
       fy="55.708286"
       r="53.047592"
       gradientTransform="matrix(1.1244379,0,0,0.58685151,-75.639901,77.822809)"
       gradientUnits="userSpaceOnUse" />
    <radialGradient
       inkscape:collect="always"
       xlink:href="#linearGradient2"
       id="radialGradient4"
       cx="49.817818"
       cy="156.02832"
       fx="49.817818"
       fy="156.02832"
       r="20.952969"
       gradientTransform="matrix(1.4436015,0,0,0.65757007,-12.784692,4.3597405)"
       gradientUnits="userSpaceOnUse" />
    <radialGradient
       inkscape:collect="always"
       xlink:href="#linearGradient53"
       id="radialGradient52"
       cx="167.82115"
       cy="418.48596"
       fx="167.82115"
       fy="418.48596"
       r="60.306629"
       gradientTransform="matrix(0.20229483,0.10823973,-0.41893023,0.37066165,241.01976,-94.721214)"
       gradientUnits="userSpaceOnUse" />
    <radialGradient
       inkscape:collect="always"
       xlink:href="#linearGradient1"
       id="radialGradient2-7"
       cx="120.23012"
       cy="55.708286"
       fx="120.23012"
       fy="55.708286"
       r="53.047592"
       gradientTransform="matrix(1.1244379,0,0,0.58685151,-237.69144,386.2351)"
       gradientUnits="userSpaceOnUse" />
    <radialGradient
       inkscape:collect="always"
       xlink:href="#linearGradient2"
       id="radialGradient4-8"
       cx="49.817818"
       cy="156.02832"
       fx="49.817818"
       fy="156.02832"
       r="20.952969"
       gradientTransform="matrix(1.4436015,0,0,0.65757007,-170.73672,325.23857)"
       gradientUnits="userSpaceOnUse" />
    <radialGradient
       inkscape:collect="always"
       xlink:href="#linearGradient53"
       id="radialGradient52-7"
       cx="167.82115"
       cy="418.48596"
       fx="167.82115"
       fy="418.48596"
       r="60.306629"
       gradientTransform="matrix(0.20229483,0.10823973,-0.41893023,0.37066165,215.38495,248.63445)"
       gradientUnits="userSpaceOnUse" />
    <linearGradient
       inkscape:collect="always"
       xlink:href="#linearGradient19"
       id="linearGradient32"
       x1="226.49159"
       y1="136.19429"
       x2="291.67862"
       y2="133.201"
       gradientUnits="userSpaceOnUse"
       gradientTransform="translate(-13.704245,238.04261)" />
    <linearGradient
       id="linearGradient19"
       inkscape:collect="always">
      <stop
         style="stop-color:#000000;stop-opacity:1;"
         offset="0"
         id="stop19" />
      <stop
         style="stop-color:#000000;stop-opacity:0;"
         offset="1"
         id="stop20" />
    </linearGradient>
    <linearGradient
       inkscape:collect="always"
       xlink:href="#linearGradient19"
       id="linearGradient33"
       x1="228.81972"
       y1="175.27322"
       x2="277.70993"
       y2="180.59462"
       gradientUnits="userSpaceOnUse"
       gradientTransform="translate(-11.376137,236.04709)" />
    <linearGradient
       inkscape:collect="always"
       xlink:href="#linearGradient19"
       id="linearGradient34"
       x1="212.93539"
       y1="216.3876"
       x2="242.24379"
       y2="236.01021"
       gradientUnits="userSpaceOnUse"
       gradientTransform="translate(-11.376137,236.04709)" />
    <radialGradient
       inkscape:collect="always"
       xlink:href="#linearGradient19"
       id="radialGradient33"
       cx="226.6579"
       cy="144.02446"
       fx="226.6579"
       fy="144.02446"
       r="23.11478"
       gradientTransform="matrix(1.1279307,0.50197789,-1.0459141,2.3501407,110.92975,-72.36413)"
       gradientUnits="userSpaceOnUse" />
    <linearGradient
       inkscape:collect="always"
       xlink:href="#linearGradient28"
       id="linearGradient30"
       x1="227.48936"
       y1="185.41711"
       x2="207.20157"
       y2="236.96806"
       gradientUnits="userSpaceOnUse"
       gradientTransform="translate(-11.376137,236.04709)" />
    <linearGradient
       id="linearGradient28"
       inkscape:collect="always">
      <stop
         style="stop-color:#3f0a4e;stop-opacity:0.97860962;"
         offset="0"
         id="stop29" />
      <stop
         style="stop-color:#aa0aba;stop-opacity:0.17647059;"
         offset="1"
         id="stop30" />
    </linearGradient>
    <radialGradient
       inkscape:collect="always"
       xlink:href="#linearGradient19"
       id="radialGradient32"
       cx="200.77084"
       cy="178.42456"
       fx="200.77084"
       fy="178.42456"
       r="23.147337"
       gradientTransform="matrix(0.98777504,0.23473774,-0.46944461,1.9754203,73.470758,20.28215)"
       gradientUnits="userSpaceOnUse" />
    <radialGradient
       inkscape:collect="always"
       xlink:href="#linearGradient1"
       id="radialGradient2-1"
       cx="120.23012"
       cy="55.708286"
       fx="120.23012"
       fy="55.708286"
       r="53.047592"
       gradientTransform="matrix(1.1244379,0,0,0.58685151,120.98491,233.72295)"
       gradientUnits="userSpaceOnUse" />
    <radialGradient
       inkscape:collect="always"
       xlink:href="#linearGradient2"
       id="radialGradient4-7"
       cx="49.817818"
       cy="156.02832"
       fx="49.817818"
       fy="156.02832"
       r="20.952969"
       gradientTransform="matrix(1.4436015,0,0,0.65757007,188.10524,144.66092)"
       gradientUnits="userSpaceOnUse" />
    <radialGradient
       inkscape:collect="always"
       xlink:href="#linearGradient53"
       id="radialGradient52-3"
       cx="167.82115"
       cy="418.48596"
       fx="167.82115"
       fy="418.48596"
       r="60.306629"
       gradientTransform="matrix(0.20229483,0.10823973,-0.41893023,0.37066165,487.11203,-26.26763)"
       gradientUnits="userSpaceOnUse" />
    <radialGradient
       inkscape:collect="always"
       xlink:href="#linearGradient1"
       id="radialGradient2-1-2"
       cx="120.23012"
       cy="55.708286"
       fx="120.23012"
       fy="55.708286"
       r="53.047592"
       gradientTransform="matrix(1.1244379,0,0,0.58685151,-134.24387,213.14464)"
       gradientUnits="userSpaceOnUse" />
    <radialGradient
       inkscape:collect="always"
       xlink:href="#linearGradient2"
       id="radialGradient4-7-6"
       cx="49.817818"
       cy="156.02832"
       fx="49.817818"
       fy="156.02832"
       r="20.952969"
       gradientTransform="matrix(1.4436015,0,0,0.65757007,-68.643963,143.91595)"
       gradientUnits="userSpaceOnUse" />
    <radialGradient
       inkscape:collect="always"
       xlink:href="#linearGradient53"
       id="radialGradient52-3-5"
       cx="167.82115"
       cy="418.48596"
       fx="167.82115"
       fy="418.48596"
       r="60.306629"
       gradientTransform="matrix(0.20229483,0.10823973,-0.41893023,0.37066165,242.10609,50.726699)"
       gradientUnits="userSpaceOnUse" />
  </defs>
  <g
     inkscape:label="Plast 1"
     inkscape:groupmode="layer"
     id="layer1">
    <rect
       style="fill:#000000;stroke-width:5.5374"
       id="rect1"
       width="121.06161"
       height="120.06384"
       x="42.303566"
       y="14.625584" />
    <path
       style="fill:#fef7cc;fill-opacity:1;stroke-width:0.0337438"
       d="m 69.096761,57.473788 c 0,0 -0.06576,3.35745 -0.955145,4.4671 -0.573518,0.71557 -1.320348,0.78455 -1.320348,0.78455 0,0 0.808597,0.31437 1.320348,1.04072 0.86178,1.22318 0.67422,4.64323 0.67422,4.64323 0,0 0.02776,-3.44685 0.955144,-4.62722 0.560175,-0.71297 1.165838,-0.91263 1.165838,-0.91263 0,0 -0.593441,-0.16944 -1.151792,-0.92865 -0.836324,-1.13717 -0.688265,-4.4671 -0.688265,-4.4671 z"
       id="path76-6"
       sodipodi:nodetypes="cscscscsc" />
    <ellipse
       style="fill:url(#radialGradient2);stroke-width:0.312392"
       id="path1"
       cx="59.551403"
       cy="110.51531"
       rx="59.648724"
       ry="31.13106"
       transform="matrix(0.92693325,-0.37522627,0.40945563,0.91233003,0,0)" />
    <ellipse
       style="fill:url(#radialGradient4);stroke-width:0.361702"
       id="path2"
       cx="59.132385"
       cy="106.95928"
       rx="30.247736"
       ry="13.778045"
       transform="matrix(0.95313221,-0.30255412,0.38928822,0.921116,0,0)" />
    <path
       id="path39-6"
       style="fill:url(#radialGradient52);stroke-width:0.0962145"
       d="m 97.594083,80.725418 c 0,0 -0.130599,3.36638 -6.13784,10.11096 -2.819887,3.16601 -7.771582,5.82846 -13.137456,6.22511 -3.243567,0.23976 -5.567707,-0.33387 -8.181517,-1.83164 -2.133962,-1.22282 -2.839028,-7.88706 -2.839028,-7.88706 0,0 1.560127,5.51536 4.149793,6.49995 2.670171,1.01517 5.404817,1.20131 8.62215,0.0262 3.657702,-1.33592 4.188526,-1.48922 8.138257,-4.86277 7.334679,-6.26467 9.385641,-8.28077 9.385641,-8.28077 z m -7.119457,-5.18744 c -0.290452,-4.03509 3.862837,-8.83474 7.044022,-12.23049 3.017202,-3.22071 7.546002,-6.4737 13.098992,-6.7647 6.41567,-0.33621 17.81618,1.99159 17.81618,1.99159 0,0 -10.4016,-1.36584 -17.47257,-0.21264 -5.30084,0.86452 -14.134501,10.94183 -16.158737,14.42175 -1.998131,3.43504 -0.345395,8.08774 -0.345395,8.08774 0,0 -3.586963,-1.28475 -3.73379,-3.32457 m 3.163748,3.89355 c 0,0 -6.556585,5.2144 -11.124993,6.0459 -3.635928,0.66178 -9.070099,0.98404 -11.154081,-1.17011 -3.279512,-3.38996 1.476075,-9.48992 4.305424,-11.85223 2.467618,-2.0603 16.492629,-12.20901 16.492629,-12.20901 0,0 -4.495539,4.75829 -7.842629,8.63714 -2.568317,2.97635 -5.180611,5.47654 -6.291262,8.48189 -0.62343,1.68696 -0.977233,4.2391 1.169988,5.15949 4.280107,1.83468 14.444924,-3.09307 14.444924,-3.09307 z m 6.071889,-0.61948 c 0,0 6.896575,4.37344 7.521825,7.41817 0.73711,3.58948 -3.97416,7.86741 -8.116766,10.10736 -3.239827,1.751822 -17.520017,2.878932 -17.520017,2.878932 0,0 7.734651,-2.791462 11.389455,-4.753662 3.415583,-1.83377 5.749189,-4.33457 7.644208,-7.01516 2.21274,-3.13004 -0.918705,-8.63564 -0.918705,-8.63564 z m 19.228035,5.48321 c -1.81732,2.6271 -9.91458,6.56403 -9.91458,6.56403 0,0 9.66796,-7.94416 7.67688,-11.33793 -1.27673,-2.17617 -5.12787,-2.65929 -8.53865,-2.6589 -2.38828,2.6e-4 -10.005298,-0.0355 -10.005298,-0.0355 0,0 17.018398,-6.01464 20.462488,-2.52741 2.97343,3.01069 3.4702,5.44062 0.31916,9.99575 z m -21.983989,-7.22262 c 0,0 8.580619,-11.57742 16.301119,-14.70633 5.65634,-2.29236 14.30187,-4.73373 19.48617,-1.9629 4.36159,2.33112 -6.52859,14.89892 -6.52859,14.89892 0,0 5.50457,-9.67365 1.72164,-10.83863 -4.56725,-1.40648 -10.32564,0.23663 -14.78073,1.80419 -6.69582,2.35597 -16.199609,10.80475 -16.199609,10.80475 z"
       sodipodi:nodetypes="cssscsssccsscsscccssscsssccsscsscscsscsscsscssc" />
    <path
       id="path75-0"
       style="fill:#ffffff;stroke-width:0.0548353"
       d="m 117.15727,68.899718 a 0.22335631,0.22335631 0 0 1 -0.22336,0.22335 0.22335631,0.22335631 0 0 1 -0.22336,-0.22335 0.22335631,0.22335631 0 0 1 0.22336,-0.22336 0.22335631,0.22335631 0 0 1 0.22336,0.22336 z m -19.343989,17.05095 a 0.34094349,0.37034029 0 0 1 -0.340944,0.37034 0.34094349,0.37034029 0 0 1 -0.340943,-0.37034 0.34094349,0.37034029 0 0 1 0.340943,-0.37034 0.34094349,0.37034029 0 0 1 0.340944,0.37034 z m -25.194215,6.96733 a 0.31154671,0.28214991 0 0 1 -0.311546,0.28215 0.31154671,0.28214991 0 0 1 -0.311547,-0.28215 0.31154671,0.28214991 0 0 1 0.311547,-0.28215 0.31154671,0.28214991 0 0 1 0.311546,0.28215 z m 27.310876,-26.57584 a 0.34094349,0.34094349 0 0 1 -0.340944,0.34094 0.34094349,0.34094349 0 0 1 -0.340943,-0.34094 0.34094349,0.34094349 0 0 1 0.340943,-0.34094 0.34094349,0.34094349 0 0 1 0.340944,0.34094 z m -20.372917,12.7 a 0.34094349,0.34094349 0 0 1 -0.340944,0.34094 0.34094349,0.34094349 0 0 1 -0.340943,-0.34094 0.34094349,0.34094349 0 0 1 0.340943,-0.34095 0.34094349,0.34094349 0 0 1 0.340944,0.34095 z m 54.239585,-11.64167 a 0.34094349,0.34094349 0 0 1 -0.34094,0.34094 0.34094349,0.34094349 0 0 1 -0.34094,-0.34094 0.34094349,0.34094349 0 0 1 0.34094,-0.34095 0.34094349,0.34094349 0 0 1 0.34094,0.34095 z m -21.69584,11.64167 a 0.34094349,0.34094349 0 0 1 -0.34094,0.34094 0.34094349,0.34094349 0 0 1 -0.34094,-0.34094 0.34094349,0.34094349 0 0 1 0.34094,-0.34095 0.34094349,0.34094349 0 0 1 0.34094,0.34095 z m -36.218499,-3.55716 a 0.22335631,0.22335631 0 0 1 -0.223357,0.22335 0.22335631,0.22335631 0 0 1 -0.223356,-0.22335 0.22335631,0.22335631 0 0 1 0.223356,-0.22336 0.22335631,0.22335631 0 0 1 0.223357,0.22336 z m 8.790047,-14.2582 a 0.25275311,0.22335631 0 0 1 -0.252753,0.22335 0.25275311,0.22335631 0 0 1 -0.252753,-0.22335 0.25275311,0.22335631 0 0 1 0.252753,-0.22336 0.25275311,0.22335631 0 0 1 0.252753,0.22336 z m 36.571282,25.87037 a 0.28214991,0.28214991 0 0 1 -0.28215,0.28215 0.28214991,0.28214991 0 0 1 -0.28215,-0.28215 0.28214991,0.28214991 0 0 1 0.28215,-0.28215 0.28214991,0.28214991 0 0 1 0.28215,0.28215 z M 64.710982,71.075188 a 0.19395952,0.16456272 0 0 1 -0.193959,0.16457 0.19395952,0.16456272 0 0 1 -0.19396,-0.16457 0.19395952,0.16456272 0 0 1 0.19396,-0.16456 0.19395952,0.16456272 0 0 1 0.193959,0.16456 z m 58.296428,-20.60803 a 0.34094349,0.34094349 0 0 1 -0.34094,0.34094 0.34094349,0.34094349 0 0 1 -0.34094,-0.34094 0.34094349,0.34094349 0 0 1 0.34094,-0.34094 0.34094349,0.34094349 0 0 1 0.34094,0.34094 z m -33.925384,46.30209 a 0.34094349,0.34094349 0 0 1 -0.340943,0.34095 0.34094349,0.34094349 0 0 1 -0.340944,-0.34095 0.34094349,0.34094349 0 0 1 0.340944,-0.34094 0.34094349,0.34094349 0 0 1 0.340943,0.34094 z m -8.172671,1.20533 a 0.22335631,0.22335631 0 0 1 -0.223356,0.22335 0.22335631,0.22335631 0 0 1 -0.223357,-0.22335 0.22335631,0.22335631 0 0 1 0.223357,-0.22336 0.22335631,0.22335631 0 0 1 0.223356,0.22336 z" />
    <rect
       style="fill:#000000;stroke-width:5.5374"
       id="rect1-1"
       width="121.06161"
       height="120.06384"
       x="16.668749"
       y="357.98123" />
    <ellipse
       style="fill:url(#radialGradient2-7);stroke-width:0.312392"
       id="path1-2"
       cx="-102.50013"
       cy="418.92761"
       rx="59.648724"
       ry="31.13106"
       transform="matrix(0.92693325,-0.37522627,0.40945563,0.91233003,0,0)" />
    <ellipse
       style="fill:url(#radialGradient4-8);stroke-width:0.361702"
       id="path2-3"
       cx="-98.819641"
       cy="427.8381"
       rx="30.247736"
       ry="13.778045"
       transform="matrix(0.95313221,-0.30255412,0.38928822,0.921116,0,0)" />
    <path
       id="path39-6-3"
       style="fill:url(#radialGradient52-7);stroke-width:0.0962145"
       d="m 71.959264,424.08108 c 0,0 -0.130599,3.36638 -6.13784,10.11096 -2.819887,3.16601 -7.771582,5.82846 -13.137456,6.22511 -3.243567,0.23976 -5.567707,-0.33387 -8.181517,-1.83164 -2.133962,-1.22282 -2.839028,-7.88706 -2.839028,-7.88706 0,0 1.560127,5.51536 4.149793,6.49995 2.670171,1.01517 5.404817,1.20131 8.62215,0.0262 3.657702,-1.33592 4.188526,-1.48922 8.138257,-4.86277 7.334679,-6.26467 9.385641,-8.28077 9.385641,-8.28077 z m -7.119457,-5.18744 c -0.290452,-4.03509 3.862837,-8.83474 7.044022,-12.23049 3.017201,-3.22071 7.546007,-6.4737 13.098997,-6.7647 6.41567,-0.33621 17.816184,1.99159 17.816184,1.99159 0,0 -10.401604,-1.36584 -17.472574,-0.21264 -5.30084,0.86452 -14.134506,10.94183 -16.158742,14.42175 -1.998131,3.43504 -0.345395,8.08774 -0.345395,8.08774 0,0 -3.586963,-1.28475 -3.73379,-3.32457 m 3.163748,3.89355 c 0,0 -6.556585,5.2144 -11.124993,6.0459 -3.635928,0.66178 -9.070099,0.98404 -11.154081,-1.17011 -3.279512,-3.38996 1.476075,-9.48992 4.305424,-11.85223 2.467618,-2.0603 16.492629,-12.20901 16.492629,-12.20901 0,0 -4.495539,4.75829 -7.842629,8.63714 -2.568317,2.97635 -5.180611,5.47654 -6.291262,8.48189 -0.62343,1.68696 -0.977233,4.2391 1.169988,5.15949 4.280107,1.83468 14.444924,-3.09307 14.444924,-3.09307 z m 6.071889,-0.61948 c 0,0 6.89658,4.37344 7.52183,7.41817 0.73711,3.58948 -3.97416,7.86741 -8.116771,10.10736 -3.239827,1.75182 -17.520017,2.87893 -17.520017,2.87893 0,0 7.734651,-2.79146 11.389455,-4.75366 3.415583,-1.83377 5.749189,-4.33457 7.644206,-7.01516 2.212747,-3.13004 -0.918703,-8.63564 -0.918703,-8.63564 z m 19.22804,5.48321 c -1.81732,2.6271 -9.91458,6.56403 -9.91458,6.56403 0,0 9.66796,-7.94416 7.67688,-11.33793 -1.27673,-2.17617 -5.12787,-2.65929 -8.53865,-2.6589 -2.38828,2.6e-4 -10.005303,-0.0355 -10.005303,-0.0355 0,0 17.018403,-6.01464 20.462493,-2.52741 2.97343,3.01069 3.4702,5.44062 0.31916,9.99575 z m -21.983994,-7.22262 c 0,0 8.580624,-11.57742 16.301124,-14.70633 5.65634,-2.29236 14.301874,-4.73373 19.486174,-1.9629 4.36159,2.33112 -6.52859,14.89892 -6.52859,14.89892 0,0 5.50457,-9.67365 1.72164,-10.83863 -4.567254,-1.40648 -10.325644,0.23663 -14.780734,1.80419 -6.69582,2.35597 -16.199614,10.80475 -16.199614,10.80475 z"
       sodipodi:nodetypes="cssscsssccsscsscccssscsssccsscsscscsscsscsscssc" />
    <path
       style="fill:url(#linearGradient32);stroke-width:0.264583"
       d="m 212.78735,413.64843 19.29003,-58.20268 39.91042,-20.62039 15.96417,34.25644 -21.95074,-17.95969 -29.93281,16.62934 z"
       id="path14" />
    <path
       style="fill:url(#linearGradient33);stroke-width:0.264583"
       d="m 217.44357,409.98998 41.24076,-27.93729 10.31018,35.58678 -17.62709,22.94849 8.31468,-36.58454 -23.94626,2.66069 z"
       id="path15" />
    <path
       style="fill:url(#linearGradient34);stroke-width:0.264583"
       d="m 222.93652,415.05936 17.90873,21.66038 -6.93281,35.38179 -38.00716,27.68608 21.09869,-23.6899 12.24348,-27.00067 z"
       id="path16" />
    <path
       style="fill:url(#radialGradient32);stroke-width:0.295989"
       d="m 210.5089,421.50923 -17.47098,27.21176 -25.32013,4.6132 c 0,0 -3.36896,-38.0944 -3.50301,-40.34985 -0.13405,-2.25541 24.06073,-48.52097 24.06073,-48.52097 l -3.93692,32.89762 -9.73825,29.26366 8.0908,15.30491 z"
       id="path17" />
    <path
       style="fill:url(#radialGradient33);stroke-width:0.264583"
       d="m 209.46148,419.96758 -15.63158,-12.97089 4.65622,-39.91041 13.63605,-35.58678 27.93729,-7.6495 -26.93953,23.94625 -9.9776,35.91937 z"
       id="path18"
       sodipodi:nodetypes="cccccccc" />
    <path
       style="fill:url(#linearGradient30);stroke-width:0.264583"
       d="m 217.77615,416.64171 -2.3281,36.25196 -20.2878,28.93505 -30.59798,5.98656 -10.31019,-15.96416 14.30123,7.6495 23.61366,-7.98209 15.96417,-26.93953 z"
       id="path19"
       sodipodi:nodetypes="ccccccccc" />
    <circle
       style="fill:#ffffff;fill-opacity:1;stroke-width:0.285782"
       id="path75"
       cx="37.416016"
       cy="41.074467"
       r="1.1640538" />
    <path
       style="fill:#fef7cc;fill-opacity:1;stroke-width:0.264583"
       d="m -70.905072,303.37494 c 0,0 -0.550486,24.65742 -7.995928,32.80683 -4.801161,5.25511 -11.053195,5.76177 -11.053195,5.76177 0,0 6.769106,2.30872 11.053194,7.64316 7.214335,8.98311 5.644186,34.10028 5.644186,34.10028 0,0 0.232428,-25.31403 7.995926,-33.98269 4.689468,-5.23622 9.759738,-6.70248 9.759738,-6.70248 0,0 -4.967956,-1.24436 -9.642149,-6.82006 -7.001228,-8.35155 -5.761772,-32.80681 -5.761772,-32.80681 z"
       id="path76"
       sodipodi:nodetypes="cscscscsc" />
    <rect
       style="fill:#000000;stroke-width:5.5374"
       id="rect1-18"
       width="121.06161"
       height="120.06384"
       x="288.39584"
       y="83.07917" />
    <ellipse
       style="fill:url(#radialGradient2-1);stroke-width:0.312392"
       id="path1-26"
       cx="256.17621"
       cy="266.41544"
       rx="59.648724"
       ry="31.13106"
       transform="matrix(0.92693325,-0.37522627,0.40945563,0.91233003,0,0)" />
    <ellipse
       style="fill:url(#radialGradient4-7);stroke-width:0.361702"
       id="path2-6"
       cx="260.02231"
       cy="247.26047"
       rx="30.247736"
       ry="13.778045"
       transform="matrix(0.95313221,-0.30255412,0.38928822,0.921116,0,0)" />
    <path
       id="path39-6-0"
       style="fill:url(#radialGradient52-3);stroke-width:0.0962145"
       d="m 343.68635,149.179 c 0,0 -0.1306,3.36638 -6.13784,10.11096 -2.81989,3.16601 -7.77158,5.82846 -13.13746,6.22511 -3.24357,0.23976 -5.56771,-0.33387 -8.18152,-1.83164 -2.13396,-1.22282 -2.83902,-7.88706 -2.83902,-7.88706 0,0 1.56012,5.51536 4.14979,6.49995 2.67017,1.01517 5.40482,1.20131 8.62215,0.0262 3.6577,-1.33592 4.18853,-1.48922 8.13826,-4.86277 7.33468,-6.26467 9.38564,-8.28077 9.38564,-8.28077 z m -7.11946,-5.18744 c -0.29045,-4.03509 3.86284,-8.83474 7.04402,-12.23049 3.0172,-3.22071 7.54601,-6.4737 13.099,-6.7647 6.41567,-0.33621 17.81618,1.99159 17.81618,1.99159 0,0 -10.4016,-1.36584 -17.47257,-0.21264 -5.30084,0.86452 -14.13451,10.94183 -16.15874,14.42175 -1.99813,3.43504 -0.3454,8.08774 -0.3454,8.08774 0,0 -3.58696,-1.28475 -3.73379,-3.32457 m 3.16375,3.89355 c 0,0 -6.55658,5.2144 -11.12499,6.0459 -3.63593,0.66178 -9.0701,0.98404 -11.15408,-1.17011 -3.27952,-3.38996 1.47607,-9.48992 4.30542,-11.85223 2.46762,-2.0603 16.49263,-12.20901 16.49263,-12.20901 0,0 -4.49554,4.75829 -7.84263,8.63714 -2.56832,2.97635 -5.18061,5.47654 -6.29126,8.48189 -0.62343,1.68696 -0.97723,4.2391 1.16999,5.15949 4.2801,1.83468 14.44492,-3.09307 14.44492,-3.09307 z m 6.07189,-0.61948 c 0,0 6.89658,4.37344 7.52183,7.41817 0.73711,3.58948 -3.97416,7.86741 -8.11677,10.10736 -3.23983,1.75182 -17.52002,2.87893 -17.52002,2.87893 0,0 7.73465,-2.79146 11.38946,-4.75366 3.41558,-1.83377 5.74919,-4.33457 7.6442,-7.01516 2.21275,-3.13004 -0.9187,-8.63564 -0.9187,-8.63564 z m 19.22804,5.48321 c -1.81732,2.6271 -9.91458,6.56403 -9.91458,6.56403 0,0 9.66796,-7.94416 7.67688,-11.33793 -1.27673,-2.17617 -5.12787,-2.65929 -8.53865,-2.6589 -2.38828,2.6e-4 -10.0053,-0.0355 -10.0053,-0.0355 0,0 17.0184,-6.01464 20.46249,-2.52741 2.97343,3.01069 3.4702,5.44062 0.31916,9.99575 z m -21.98399,-7.22262 c 0,0 8.58062,-11.57742 16.30112,-14.70633 5.65634,-2.29236 14.30187,-4.73373 19.48617,-1.9629 4.36159,2.33112 -6.52859,14.89892 -6.52859,14.89892 0,0 5.50457,-9.67365 1.72164,-10.83863 -4.56725,-1.40648 -10.32564,0.23663 -14.78073,1.80419 -6.69582,2.35597 -16.19961,10.80475 -16.19961,10.80475 z"
       sodipodi:nodetypes="cssscsssccsscsscccssscsssccsscsscscsscsscsscssc" />
    <path
       id="path75-0-3"
       style="fill:#ffffff;stroke-width:0.0548353"
       d="m 363.24954,137.3533 a 0.22335631,0.22335631 0 0 1 -0.22336,0.22335 0.22335631,0.22335631 0 0 1 -0.22336,-0.22335 0.22335631,0.22335631 0 0 1 0.22336,-0.22336 0.22335631,0.22335631 0 0 1 0.22336,0.22336 z m -19.34399,17.05095 a 0.34094349,0.37034029 0 0 1 -0.34095,0.37034 0.34094349,0.37034029 0 0 1 -0.34094,-0.37034 0.34094349,0.37034029 0 0 1 0.34094,-0.37034 0.34094349,0.37034029 0 0 1 0.34095,0.37034 z m -25.19422,6.96733 a 0.31154671,0.28214991 0 0 1 -0.31155,0.28215 0.31154671,0.28214991 0 0 1 -0.31154,-0.28215 0.31154671,0.28214991 0 0 1 0.31154,-0.28215 0.31154671,0.28214991 0 0 1 0.31155,0.28215 z m 27.31088,-26.57584 a 0.34094349,0.34094349 0 0 1 -0.34095,0.34094 0.34094349,0.34094349 0 0 1 -0.34094,-0.34094 0.34094349,0.34094349 0 0 1 0.34094,-0.34094 0.34094349,0.34094349 0 0 1 0.34095,0.34094 z m -20.37292,12.7 a 0.34094349,0.34094349 0 0 1 -0.34094,0.34094 0.34094349,0.34094349 0 0 1 -0.34095,-0.34094 0.34094349,0.34094349 0 0 1 0.34095,-0.34095 0.34094349,0.34094349 0 0 1 0.34094,0.34095 z m 54.23959,-11.64167 a 0.34094349,0.34094349 0 0 1 -0.34094,0.34094 0.34094349,0.34094349 0 0 1 -0.34094,-0.34094 0.34094349,0.34094349 0 0 1 0.34094,-0.34095 0.34094349,0.34094349 0 0 1 0.34094,0.34095 z m -21.69584,11.64167 a 0.34094349,0.34094349 0 0 1 -0.34094,0.34094 0.34094349,0.34094349 0 0 1 -0.34094,-0.34094 0.34094349,0.34094349 0 0 1 0.34094,-0.34095 0.34094349,0.34094349 0 0 1 0.34094,0.34095 z m -36.2185,-3.55716 a 0.22335631,0.22335631 0 0 1 -0.22336,0.22335 0.22335631,0.22335631 0 0 1 -0.22336,-0.22335 0.22335631,0.22335631 0 0 1 0.22336,-0.22336 0.22335631,0.22335631 0 0 1 0.22336,0.22336 z m 8.79004,-14.2582 a 0.25275311,0.22335631 0 0 1 -0.25275,0.22335 0.25275311,0.22335631 0 0 1 -0.25275,-0.22335 0.25275311,0.22335631 0 0 1 0.25275,-0.22336 0.25275311,0.22335631 0 0 1 0.25275,0.22336 z m 36.57129,25.87037 a 0.28214991,0.28214991 0 0 1 -0.28215,0.28215 0.28214991,0.28214991 0 0 1 -0.28215,-0.28215 0.28214991,0.28214991 0 0 1 0.28215,-0.28215 0.28214991,0.28214991 0 0 1 0.28215,0.28215 z m -56.53262,-16.02198 a 0.19395952,0.16456272 0 0 1 -0.19396,0.16457 0.19395952,0.16456272 0 0 1 -0.19396,-0.16457 0.19395952,0.16456272 0 0 1 0.19396,-0.16456 0.19395952,0.16456272 0 0 1 0.19396,0.16456 z m 58.29643,-20.60803 a 0.34094349,0.34094349 0 0 1 -0.34094,0.34094 0.34094349,0.34094349 0 0 1 -0.34094,-0.34094 0.34094349,0.34094349 0 0 1 0.34094,-0.34094 0.34094349,0.34094349 0 0 1 0.34094,0.34094 z m -33.92539,46.30209 a 0.34094349,0.34094349 0 0 1 -0.34094,0.34095 0.34094349,0.34094349 0 0 1 -0.34095,-0.34095 0.34094349,0.34094349 0 0 1 0.34095,-0.34094 0.34094349,0.34094349 0 0 1 0.34094,0.34094 z m -8.17267,1.20533 a 0.22335631,0.22335631 0 0 1 -0.22336,0.22335 0.22335631,0.22335631 0 0 1 -0.22335,-0.22335 0.22335631,0.22335631 0 0 1 0.22335,-0.22336 0.22335631,0.22335631 0 0 1 0.22336,0.22336 z" />
    <path
       style="fill:#fcf6ca;fill-opacity:0.695817;stroke-width:0.0588812"
       d="m 133.53386,72.822528 c 0,0 -0.0996,6.75101 -1.44636,8.98225 -0.86847,1.43881 -1.99938,1.57753 -1.99938,1.57753 0,0 1.22444,0.63211 1.99938,2.09264 1.30499,2.4595 1.02096,9.33638 1.02096,9.33638 0,0 0.042,-6.93077 1.44637,-9.30419 0.84827,-1.43364 1.76542,-1.83509 1.76542,-1.83509 0,0 -0.89864,-0.34069 -1.74415,-1.86727 -1.26643,-2.28659 -1.04224,-8.98225 -1.04224,-8.98225 z"
       id="path76-5"
       sodipodi:nodetypes="cscscscsc" />
    <path
       style="fill:#fcf6ca;fill-opacity:0.695817;stroke-width:0.23745"
       d="m 306.86243,140.49427 c 0,0 12.94561,-11.71051 23.97191,-16.73148 14.11394,-6.42696 32.79836,-9.1634 32.79836,-9.1634 0,0 -17.8345,3.02653 -31.47832,9.09408 -11.02651,4.90358 -25.29195,16.8008 -25.29195,16.8008 z"
       id="path78"
       sodipodi:nodetypes="cscsc" />
    <path
       style="fill:#ffffff;fill-opacity:1;stroke-width:0.134698"
       d="m 233.15185,155.4496 c 0,0 -3.2127,-0.53192 -4.22902,-1.63315 -1.39913,-1.51602 -1.41921,-4.10237 -1.69954,-5.90162 -0.21608,-1.38682 -1.65264,-3.78201 -1.65264,-3.78201 l 4.48767,1.09749 c 0,0 2.30672,-2.26061 3.69206,-3.07383 1.54146,-0.90486 5.01568,-1.93561 5.01568,-1.93561 l 1.57434,-4.64581 c 0,0 1.71801,2.99244 2.82643,4.26071 1.03742,1.18705 2.05636,1.985 3.02747,3.56724 1.0834,1.76517 0.45111,5.71609 0.45111,5.71609 0,0 -4.46032,1.24701 -6.55158,2.20683 -2.45049,1.12468 -6.94198,4.12367 -6.94198,4.12367 z"
       id="path79"
       sodipodi:nodetypes="cssccsccsscsc" />
    <ellipse
       style="fill:#ffffff;fill-opacity:1;stroke-width:0.134712"
       id="path80"
       cx="71.133331"
       cy="268.01801"
       rx="2.5020545"
       ry="1.3523285"
       transform="matrix(0.77180023,-0.63586509,0.65115654,0.75894345,0,0)" />
    <ellipse
       style="fill:#ffffff;fill-opacity:1;stroke-width:0.134699"
       id="ellipse80"
       cx="233.01108"
       cy="174.22032"
       rx="2.5222979"
       ry="1.3412206"
       transform="matrix(0.99415273,-0.10798311,0.11239782,0.99366329,0,0)" />
    <ellipse
       style="fill:#000000;fill-opacity:1;stroke-width:0.134698"
       id="path81"
       cx="238.18845"
       cy="145.1895"
       rx="1.4538783"
       ry="1.5084944" />
    <ellipse
       style="fill:#ffffff;fill-opacity:1;stroke-width:0.33177"
       id="path82"
       cx="238.65881"
       cy="144.43526"
       rx="0.55589461"
       ry="0.58663666" />
    <ellipse
       style="fill:#000000;fill-opacity:1;stroke-width:0.134698"
       id="path81-8"
       cx="233.51926"
       cy="147.48761"
       rx="1.4538783"
       ry="1.5084944" />
    <ellipse
       style="fill:#ffffff;fill-opacity:1;stroke-width:0.33177"
       id="path82-3"
       cx="233.98964"
       cy="146.73337"
       rx="0.55589461"
       ry="0.58663666" />
    <path
       style="fill:#000000;fill-opacity:1;stroke-width:0.0438286"
       d="m 236.68886,148.18359 c 0.3097,-0.23008 0.41062,-0.68626 0.78358,-0.65004 0.44748,0.0434 0.0138,0.64783 -0.0664,0.95472 -0.13776,0.52734 -0.0764,1.0182 -0.0764,1.0182 0,0 -0.33581,-0.27339 -0.8538,-0.50026 -0.23697,-0.10379 -0.90248,0.0651 -0.76527,-0.37907 0.14321,-0.46355 0.60811,-0.16856 0.97826,-0.44355 z"
       id="path83"
       sodipodi:nodetypes="ssscsss" />
    <path
       style="fill:#ffffff;fill-opacity:1;stroke-width:0.127119"
       d="m 323.00145,128.30879 c 0,0 -3.0041,-0.50664 -3.95443,-1.55555 -1.30828,-1.44398 -1.32706,-3.90743 -1.58919,-5.62119 -0.20205,-1.32092 -1.54533,-3.6023 -1.54533,-3.6023 l 4.19628,1.04534 c 0,0 2.15695,-2.15319 3.45233,-2.92777 1.44138,-0.86186 4.69001,-1.84363 4.69001,-1.84363 l 1.47212,-4.42506 c 0,0 1.60646,2.85025 2.64291,4.05826 0.97006,1.13064 1.92284,1.89068 2.83089,3.39773 1.01306,1.6813 0.42182,5.44448 0.42182,5.44448 0,0 -4.17071,1.18776 -6.12618,2.10197 -2.29138,1.07124 -6.49123,3.92772 -6.49123,3.92772 z"
       id="path79-9"
       sodipodi:nodetypes="cssccsccsscsc" />
    <ellipse
       style="fill:#ffffff;fill-opacity:1;stroke-width:0.12712"
       id="path80-8"
       cx="160.04376"
       cy="305.6731"
       rx="2.3573077"
       ry="1.2781379"
       transform="matrix(0.76600079,-0.64283963,0.64421928,0.76484085,0,0)" />
    <ellipse
       style="fill:#ffffff;fill-opacity:1;stroke-width:0.12712"
       id="ellipse80-9"
       cx="324.45642"
       cy="157.81497"
       rx="2.3590403"
       ry="1.2771972"
       transform="matrix(0.99393491,-0.10996995,0.1103682,0.99389077,0,0)" />
    <ellipse
       style="fill:#000000;fill-opacity:1;stroke-width:0.127119"
       id="path81-7"
       cx="327.71103"
       cy="118.53623"
       rx="1.359477"
       ry="1.436815" />
    <ellipse
       style="fill:#ffffff;fill-opacity:1;stroke-width:0.313103"
       id="path82-2"
       cx="328.15085"
       cy="117.81783"
       rx="0.51980001"
       ry="0.55876136" />
    <ellipse
       style="fill:#000000;fill-opacity:1;stroke-width:0.127119"
       id="path81-8-2"
       cx="323.345"
       cy="120.72514"
       rx="1.359477"
       ry="1.436815" />
    <ellipse
       style="fill:#ffffff;fill-opacity:1;stroke-width:0.313103"
       id="path82-3-8"
       cx="323.78482"
       cy="120.00673"
       rx="0.51980001"
       ry="0.55876136" />
    <path
       style="fill:#000000;fill-opacity:1;stroke-width:0.0413626"
       d="m 326.3088,121.38804 c 0.28959,-0.21914 0.38396,-0.65365 0.7327,-0.61915 0.41842,0.0413 0.0129,0.61705 -0.0621,0.90935 -0.12881,0.50229 -0.0714,0.96982 -0.0714,0.96982 0,0 -0.314,-0.2604 -0.79836,-0.47649 -0.22158,-0.0988 -0.84388,0.062 -0.71558,-0.36105 0.13391,-0.44153 0.56862,-0.16055 0.91474,-0.42248 z"
       id="path83-2"
       sodipodi:nodetypes="ssscsss" />
    <path
       style="fill:#ffffff;fill-opacity:1;stroke-width:0.166392"
       d="m 345.14739,118.65061 c 0,0 -2.4584,-7.82125 -0.79828,-10.8047 1.60625,-2.8866 6.20459,-0.0631 7.89549,-2.88938 1.25059,-2.09034 -1.04204,-4.7016 -0.55344,-7.121 0.22302,-1.104606 0.23478,-1.904012 1.19916,-2.059522 0.92942,-0.149863 1.6947,1.948722 1.9423,2.957213 0.60118,2.448489 1.45173,6.592659 -0.30895,9.422979 -1.75537,2.82179 -5.95063,-0.47862 -7.55955,2.44924 -1.17623,2.14046 1.2423,7.03237 1.2423,7.03237 z"
       id="path84"
       sodipodi:nodetypes="cssssssscc" />
    <path
       style="fill:#fef7cc;fill-opacity:0.69581747;stroke-width:0.059686"
       d="m 382.01862,143.65444 c 0,0 -0.10411,6.63486 -1.51219,8.82771 -0.90799,1.41406 -2.09038,1.55039 -2.09038,1.55039 0,0 1.28017,0.62123 2.09038,2.05663 1.36438,2.41719 1.06743,9.17575 1.06743,9.17575 0,0 0.0439,-6.81153 1.51219,-9.14411 0.88687,-1.40897 1.84576,-1.80351 1.84576,-1.80351 0,0 -0.93954,-0.33483 -1.82352,-1.83515 -1.32407,-2.24725 -1.08967,-8.82771 -1.08967,-8.82771 z"
       id="path76-8"
       sodipodi:nodetypes="cscscscsc" />
    <path
       style="fill:#fef7cc;fill-opacity:0.66539925;stroke-width:0.0235422"
       d="m 364.12033,167.34297 c 0,0 -0.043,2.49936 -0.62454,3.32542 -0.37501,0.53267 -0.86333,0.58403 -0.86333,0.58403 0,0 0.52871,0.23402 0.86333,0.77474 0.56349,0.91055 0.44085,3.45652 0.44085,3.45652 0,0 0.0181,-2.56592 0.62453,-3.4446 0.36628,-0.53077 0.76231,-0.67939 0.76231,-0.67939 0,0 -0.38804,-0.12613 -0.75312,-0.69131 -0.54685,-0.84654 -0.45003,-3.32541 -0.45003,-3.32541 z"
       id="path76-1"
       sodipodi:nodetypes="cscscscsc" />
    <rect
       style="fill:#000000;stroke-width:5.5374"
       id="rect1-18-6"
       width="121.06161"
       height="120.06384"
       x="43.3899"
       y="160.0735" />
    <ellipse
       style="fill:url(#radialGradient2-1-2);stroke-width:0.312392"
       id="path1-26-1"
       cx="0.94743484"
       cy="245.83711"
       rx="59.648724"
       ry="31.13106"
       transform="matrix(0.92693325,-0.37522627,0.40945563,0.91233003,0,0)" />
    <ellipse
       style="fill:url(#radialGradient4-7-6);stroke-width:0.361702"
       id="path2-6-8"
       cx="3.273104"
       cy="246.5155"
       rx="30.247736"
       ry="13.778045"
       transform="matrix(0.95313221,-0.30255412,0.38928822,0.921116,0,0)" />
    <path
       id="path39-6-0-2"
       style="fill:url(#radialGradient52-3-5);stroke-width:0.0962145"
       d="m 98.680408,226.17332 c 0,0 -0.1306,3.36638 -6.13784,10.11097 -2.81989,3.16601 -7.77158,5.82846 -13.13746,6.22511 -3.24357,0.23975 -5.56771,-0.33387 -8.18152,-1.83164 -2.13396,-1.22283 -2.83902,-7.88706 -2.83902,-7.88706 0,0 1.56012,5.51536 4.14979,6.49995 2.67017,1.01517 5.40482,1.20131 8.62215,0.0262 3.6577,-1.33592 4.18853,-1.48922 8.13826,-4.86277 7.33468,-6.26467 9.38564,-8.28077 9.38564,-8.28077 z m -7.11946,-5.18744 c -0.29045,-4.03509 3.86284,-8.83474 7.04402,-12.23049 3.017202,-3.22071 7.546012,-6.4737 13.099002,-6.7647 6.41567,-0.33621 17.81618,1.99159 17.81618,1.99159 0,0 -10.4016,-1.36584 -17.47257,-0.21264 -5.30084,0.86452 -14.134512,10.94183 -16.158742,14.42175 -1.99813,3.43504 -0.3454,8.08774 -0.3454,8.08774 0,0 -3.58696,-1.28475 -3.73379,-3.32457 m 3.16375,3.89355 c 0,0 -6.55658,5.21441 -11.12499,6.0459 -3.63593,0.66178 -9.0701,0.98404 -11.15408,-1.17011 -3.27952,-3.38996 1.47607,-9.48992 4.30542,-11.85222 2.46762,-2.06031 16.49263,-12.20902 16.49263,-12.20902 0,0 -4.49554,4.75829 -7.84263,8.63714 -2.56832,2.97635 -5.18061,5.47654 -6.29126,8.48189 -0.62343,1.68696 -0.97723,4.2391 1.16999,5.15949 4.2801,1.83468 14.44492,-3.09307 14.44492,-3.09307 z m 6.071892,-0.61948 c 0,0 6.89658,4.37344 7.52183,7.41817 0.73711,3.58949 -3.97416,7.86741 -8.11677,10.10736 -3.239832,1.75183 -17.520022,2.87893 -17.520022,2.87893 0,0 7.73465,-2.79145 11.38946,-4.75366 3.41558,-1.83376 5.749192,-4.33457 7.644202,-7.01516 2.21275,-3.13004 -0.9187,-8.63564 -0.9187,-8.63564 z m 19.22804,5.48321 c -1.81732,2.6271 -9.91458,6.56403 -9.91458,6.56403 0,0 9.66796,-7.94416 7.67688,-11.33793 -1.27673,-2.17617 -5.12787,-2.65929 -8.53865,-2.6589 -2.38828,2.6e-4 -10.005302,-0.0355 -10.005302,-0.0355 0,0 17.018402,-6.01464 20.462492,-2.52741 2.97343,3.01069 3.4702,5.44062 0.31916,9.99575 z m -21.983992,-7.22262 c 0,0 8.580622,-11.57742 16.301122,-14.70633 5.65634,-2.29236 14.30187,-4.73373 19.48617,-1.9629 4.36159,2.33112 -6.52859,14.89892 -6.52859,14.89892 0,0 5.50457,-9.67365 1.72164,-10.83863 -4.56725,-1.40648 -10.32564,0.23663 -14.78073,1.80419 -6.69582,2.35597 -16.199612,10.80475 -16.199612,10.80475 z"
       sodipodi:nodetypes="cssscsssccsscsscccssscsssccsscsscscsscsscsscssc" />
    <path
       id="path75-0-3-1"
       style="fill:#ffffff;stroke-width:0.0548353"
       d="m 118.2436,214.34762 a 0.22335631,0.22335631 0 0 1 -0.22336,0.22335 0.22335631,0.22335631 0 0 1 -0.22336,-0.22335 0.22335631,0.22335631 0 0 1 0.22336,-0.22336 0.22335631,0.22335631 0 0 1 0.22336,0.22336 z m -19.343992,17.05095 a 0.34094349,0.37034029 0 0 1 -0.34095,0.37034 0.34094349,0.37034029 0 0 1 -0.34094,-0.37034 0.34094349,0.37034029 0 0 1 0.34094,-0.37034 0.34094349,0.37034029 0 0 1 0.34095,0.37034 z m -25.19422,6.96733 a 0.31154671,0.28214991 0 0 1 -0.31155,0.28215 0.31154671,0.28214991 0 0 1 -0.31154,-0.28215 0.31154671,0.28214991 0 0 1 0.31154,-0.28215 0.31154671,0.28214991 0 0 1 0.31155,0.28215 z m 27.310882,-26.57584 a 0.34094349,0.34094349 0 0 1 -0.34095,0.34094 0.34094349,0.34094349 0 0 1 -0.34094,-0.34094 0.34094349,0.34094349 0 0 1 0.34094,-0.34093 0.34094349,0.34094349 0 0 1 0.34095,0.34093 z m -20.372922,12.7 a 0.34094349,0.34094349 0 0 1 -0.34094,0.34094 0.34094349,0.34094349 0 0 1 -0.34095,-0.34094 0.34094349,0.34094349 0 0 1 0.34095,-0.34095 0.34094349,0.34094349 0 0 1 0.34094,0.34095 z m 54.239592,-11.64167 a 0.34094349,0.34094349 0 0 1 -0.34094,0.34094 0.34094349,0.34094349 0 0 1 -0.34094,-0.34094 0.34094349,0.34094349 0 0 1 0.34094,-0.34095 0.34094349,0.34094349 0 0 1 0.34094,0.34095 z m -21.69584,11.64167 a 0.34094349,0.34094349 0 0 1 -0.34094,0.34094 0.34094349,0.34094349 0 0 1 -0.34094,-0.34094 0.34094349,0.34094349 0 0 1 0.34094,-0.34095 0.34094349,0.34094349 0 0 1 0.34094,0.34095 z M 76.968598,220.9329 a 0.22335631,0.22335631 0 0 1 -0.22336,0.22335 0.22335631,0.22335631 0 0 1 -0.22336,-0.22335 0.22335631,0.22335631 0 0 1 0.22336,-0.22336 0.22335631,0.22335631 0 0 1 0.22336,0.22336 z m 8.79004,-14.2582 a 0.25275311,0.22335631 0 0 1 -0.25275,0.22335 0.25275311,0.22335631 0 0 1 -0.25275,-0.22335 0.25275311,0.22335631 0 0 1 0.25275,-0.22336 0.25275311,0.22335631 0 0 1 0.25275,0.22336 z m 36.571292,25.87037 a 0.28214991,0.28214991 0 0 1 -0.28215,0.28215 0.28214991,0.28214991 0 0 1 -0.28215,-0.28215 0.28214991,0.28214991 0 0 1 0.28215,-0.28215 0.28214991,0.28214991 0 0 1 0.28215,0.28215 z M 65.797308,216.5231 a 0.19395952,0.16456272 0 0 1 -0.19396,0.16457 0.19395952,0.16456272 0 0 1 -0.19396,-0.16457 0.19395952,0.16456272 0 0 1 0.19396,-0.16456 0.19395952,0.16456272 0 0 1 0.19396,0.16456 z m 58.296432,-20.60804 a 0.34094349,0.34094349 0 0 1 -0.34094,0.34095 0.34094349,0.34094349 0 0 1 -0.34094,-0.34095 0.34094349,0.34094349 0 0 1 0.34094,-0.34093 0.34094349,0.34094349 0 0 1 0.34094,0.34093 z m -33.925392,46.3021 a 0.34094349,0.34094349 0 0 1 -0.34094,0.34095 0.34094349,0.34094349 0 0 1 -0.34095,-0.34095 0.34094349,0.34094349 0 0 1 0.34095,-0.34094 0.34094349,0.34094349 0 0 1 0.34094,0.34094 z m -8.17267,1.20533 a 0.22335631,0.22335631 0 0 1 -0.22336,0.22335 0.22335631,0.22335631 0 0 1 -0.22335,-0.22335 0.22335631,0.22335631 0 0 1 0.22335,-0.22336 0.22335631,0.22335631 0 0 1 0.22336,0.22336 z" />
    <path
       style="fill:#fcf6ca;fill-opacity:0.695817;stroke-width:0.23745"
       d="m 61.856488,217.48859 c 0,0 12.94561,-11.71051 23.97191,-16.73148 14.11394,-6.42695 32.798362,-9.1634 32.798362,-9.1634 0,0 -17.8345,3.02653 -31.478322,9.09409 -11.02651,4.90357 -25.29195,16.80079 -25.29195,16.80079 z"
       id="path78-1"
       sodipodi:nodetypes="cscsc" />
    <path
       style="fill:#ffffff;fill-opacity:1;stroke-width:0.127119"
       d="m 77.995508,205.30311 c 0,0 -3.0041,-0.50664 -3.95443,-1.55555 -1.30828,-1.44398 -1.32706,-3.90743 -1.58919,-5.62119 -0.20205,-1.32092 -1.54533,-3.60229 -1.54533,-3.60229 l 4.19628,1.04533 c 0,0 2.15695,-2.15319 3.45233,-2.92776 1.44138,-0.86187 4.69001,-1.84364 4.69001,-1.84364 l 1.47212,-4.42506 c 0,0 1.60646,2.85025 2.64291,4.05826 0.97006,1.13064 1.92284,1.89069 2.83089,3.39773 1.01306,1.6813 0.42182,5.44448 0.42182,5.44448 0,0 -4.17071,1.18776 -6.12618,2.10197 -2.29138,1.07124 -6.49123,3.92772 -6.49123,3.92772 z"
       id="path79-9-9"
       sodipodi:nodetypes="cssccsccsscsc" />
    <ellipse
       style="fill:#ffffff;fill-opacity:1;stroke-width:0.12712"
       id="path80-8-7"
       cx="-76.948402"
       cy="207.15112"
       rx="2.3573077"
       ry="1.2781379"
       transform="matrix(0.76600079,-0.64283963,0.64421928,0.76484085,0,0)" />
    <ellipse
       style="fill:#ffffff;fill-opacity:1;stroke-width:0.12712"
       id="ellipse80-9-6"
       cx="72.449532"
       cy="207.39905"
       rx="2.3590403"
       ry="1.2771972"
       transform="matrix(0.99393491,-0.10996995,0.1103682,0.99389077,0,0)" />
    <ellipse
       style="fill:#000000;fill-opacity:1;stroke-width:0.127119"
       id="path81-7-2"
       cx="82.705086"
       cy="195.53056"
       rx="1.359477"
       ry="1.436815" />
    <ellipse
       style="fill:#ffffff;fill-opacity:1;stroke-width:0.313103"
       id="path82-2-9"
       cx="83.144905"
       cy="194.81216"
       rx="0.51980001"
       ry="0.55876136" />
    <ellipse
       style="fill:#000000;fill-opacity:1;stroke-width:0.127119"
       id="path81-8-2-5"
       cx="78.339058"
       cy="197.71947"
       rx="1.359477"
       ry="1.436815" />
    <ellipse
       style="fill:#ffffff;fill-opacity:1;stroke-width:0.313103"
       id="path82-3-8-2"
       cx="78.778877"
       cy="197.00105"
       rx="0.51980001"
       ry="0.55876136" />
    <path
       style="fill:#000000;fill-opacity:1;stroke-width:0.0413626"
       d="m 81.302858,198.38237 c 0.28959,-0.21914 0.38396,-0.65366 0.7327,-0.61916 0.41842,0.0413 0.0129,0.61705 -0.0621,0.90935 -0.12881,0.50229 -0.0714,0.96983 -0.0714,0.96983 0,0 -0.314,-0.2604 -0.79836,-0.4765 -0.22158,-0.0988 -0.84388,0.062 -0.71558,-0.36105 0.13391,-0.44153 0.56862,-0.16055 0.91474,-0.42247 z"
       id="path83-2-0"
       sodipodi:nodetypes="ssscsss" />
    <path
       style="fill:#ffffff;fill-opacity:1;stroke-width:0.166392"
       d="m 100.14145,195.64493 c 0,0 -2.458402,-7.82125 -0.798282,-10.8047 1.606252,-2.8866 6.204592,-0.0631 7.895492,-2.88937 1.25059,-2.09035 -1.04204,-4.70161 -0.55344,-7.12101 0.22302,-1.1046 0.23478,-1.90401 1.19916,-2.05952 0.92942,-0.14986 1.6947,1.94872 1.9423,2.95722 0.60118,2.44848 1.45173,6.59266 -0.30895,9.42297 -1.75537,2.82179 -5.95063,-0.47861 -7.55955,2.44925 -1.17623,2.14046 1.2423,7.03236 1.2423,7.03236 z"
       id="path84-0"
       sodipodi:nodetypes="cssssssscc" />
    <path
       style="fill:#fef7cc;fill-opacity:0.695817;stroke-width:0.059686"
       d="m 137.01268,220.64876 c 0,0 -0.10411,6.63486 -1.51219,8.82771 -0.90799,1.41406 -2.09038,1.55039 -2.09038,1.55039 0,0 1.28017,0.62123 2.09038,2.05663 1.36438,2.41719 1.06743,9.17575 1.06743,9.17575 0,0 0.0439,-6.81153 1.51219,-9.14411 0.88687,-1.40897 1.84576,-1.80351 1.84576,-1.80351 0,0 -0.93954,-0.33483 -1.82352,-1.83515 -1.32407,-2.24725 -1.08967,-8.82771 -1.08967,-8.82771 z"
       id="path76-8-3"
       sodipodi:nodetypes="cscscscsc" />
    <path
       style="fill:#fef7cc;fill-opacity:0.665399;stroke-width:0.0235422"
       d="m 119.11439,244.3373 c 0,0 -0.043,2.49935 -0.62454,3.32542 -0.37501,0.53267 -0.86333,0.58403 -0.86333,0.58403 0,0 0.52871,0.23402 0.86333,0.77474 0.56349,0.91055 0.44085,3.45652 0.44085,3.45652 0,0 0.0181,-2.56592 0.62453,-3.4446 0.36628,-0.53077 0.76231,-0.67939 0.76231,-0.67939 0,0 -0.38804,-0.12613 -0.75312,-0.69131 -0.54685,-0.84654 -0.45003,-3.32541 -0.45003,-3.32541 z"
       id="path76-1-9"
       sodipodi:nodetypes="cscscscsc" />
  </g>
</svg>
